<?xml version="1.0" standalone="no"?><!DOCTYPE svg PUBLIC "-//W3C//DTD SVG 1.1//EN" "http://www.w3.org/Graphics/SVG/1.1/DTD/svg11.dtd"><svg t="1540624651677" class="icon" style="" viewBox="0 0 1024 1024" version="1.1" xmlns="http://www.w3.org/2000/svg" p-id="22277" xmlns:xlink="http://www.w3.org/1999/xlink" width="200" height="200"><defs><style type="text/css"></style></defs><path d="M870.26344 190.408821c-10.737563-9.749048-24.877622-15.083548-39.499659-15.083548-1.333369 0-2.666739 0-3.999085 0.092098-0.806366 0.091074-10.117438 0.645707-24.668867 0.645707-24.117305 0-71.201716-1.655711-115.803585-12.230568-57.590707-13.703107-124.056558-77.159411-143.392971-89.666272-9.748025-6.343481-20.967565-9.470708-32.209618-9.470708-11.196004 0-22.415545 3.127227-32.141057 9.379634-2.344397 1.563613-71.938498 73.569649-140.011964 89.757346-44.578332 10.574857-92.560185 12.230568-116.654977 12.230568-14.553475 0-23.839988-0.554633-24.758918-0.645707-1.264808-0.092098-2.529615-0.092098-3.816936-0.092098-14.645573 0-28.830658 5.333477-39.613246 15.083548-11.701518 10.574857-18.368365 25.380066-18.368365 40.922056l0 140.058013c0 517.749452 350.285225 584.42201 365.135459 587.085679 3.40352 0.555656 6.828529 0.829902 10.254562 0.829902 3.402497 0 6.873555-0.274246 10.230002-0.829902 14.87377-2.664692 367.732613-69.337251 367.732613-587.085679L888.67683 231.330877C888.67683 215.788887 881.98747 200.984701 870.26344 190.408821zM740.77926 390.700744l-242.8482 234.965664c-1.517565 2.480497-3.379984 4.967133-5.633306 7.081286-7.127335 6.897091-16.553018 10.20749-25.888649 10.023294-9.332562 0.184195-18.737779-3.126204-25.863067-10.023294-2.252299-2.114153-4.137231-4.600789-5.654796-7.081286l-129.780938-125.621194c-13.818741-13.33574-13.818741-34.944918 0-48.372756 13.816694-13.331646 36.231215-13.331646 50.049956 0l111.249868 107.689782 224.342712-217.030159c13.818741-13.33574 36.209726-13.33574 50.027443 0C754.596978 355.662704 754.596978 377.368074 740.77926 390.700744z" p-id="22278" fill="#AFAFAF"></path></svg>