<?xml version="1.0" standalone="no"?><!DOCTYPE svg PUBLIC "-//W3C//DTD SVG 1.1//EN" "http://www.w3.org/Graphics/SVG/1.1/DTD/svg11.dtd"><svg t="1540624320260" class="icon" style="" viewBox="0 0 1024 1024" version="1.1" xmlns="http://www.w3.org/2000/svg" p-id="18192" xmlns:xlink="http://www.w3.org/1999/xlink" width="200" height="200"><defs><style type="text/css"></style></defs><path d="M849.702128 1024 174.297872 1024C126.169872 1024 87.148936 984.979064 87.148936 936.851064L87.148936 152.510638C87.148936 104.382638 126.169872 65.361702 174.297872 65.361702L283.234043 65.361702 283.234043 43.574468C283.234043 19.499574 302.733617 0 326.808511 0L697.191489 0C721.266383 0 740.765957 19.499574 740.765957 43.574468L740.765957 65.361702 849.702128 65.361702C897.830128 65.361702 936.851064 104.382638 936.851064 152.510638L936.851064 936.851064C936.851064 984.979064 897.830128 1024 849.702128 1024ZM653.617021 65.361702 370.382979 65.361702C358.356426 65.361702 348.595745 75.122383 348.595745 87.148936 348.595745 99.175489 358.356426 108.93617 370.382979 108.93617L653.617021 108.93617C665.643574 108.93617 675.404255 99.175489 675.404255 87.148936 675.404255 75.122383 665.643574 65.361702 653.617021 65.361702ZM871.489362 196.085106C871.489362 159.98366 842.229106 130.723404 806.12766 130.723404L740.765957 130.723404C740.765957 154.798298 721.266383 174.297872 697.191489 174.297872L326.808511 174.297872C302.733617 174.297872 283.234043 154.798298 283.234043 130.723404L217.87234 130.723404C181.770894 130.723404 152.510638 159.98366 152.510638 196.085106L152.510638 893.276596C152.510638 929.378043 181.770894 958.638298 217.87234 958.638298L806.12766 958.638298C842.229106 958.638298 871.489362 929.378043 871.489362 893.276596L871.489362 196.085106ZM261.446809 762.553191 762.553191 762.553191 762.553191 827.914894 261.446809 827.914894 261.446809 762.553191ZM261.446809 544.680851 762.553191 544.680851 762.553191 610.042553 261.446809 610.042553 261.446809 544.680851ZM261.446809 326.808511 762.553191 326.808511 762.553191 392.170213 261.446809 392.170213 261.446809 326.808511Z" p-id="18193" fill="#AFAFAF"></path></svg>