<?xml version="1.0" standalone="no"?><!DOCTYPE svg PUBLIC "-//W3C//DTD SVG 1.1//EN" "http://www.w3.org/Graphics/SVG/1.1/DTD/svg11.dtd"><svg t="1540624234119" class="icon" style="" viewBox="0 0 1024 1024" version="1.1" xmlns="http://www.w3.org/2000/svg" p-id="15323" xmlns:xlink="http://www.w3.org/1999/xlink" width="200" height="200"><defs><style type="text/css"></style></defs><path d="M546.176 914.8416c-10.496 8.5504-20.1728 15.104-34.688 15.0272-13.2608-0.0768-25.8048-8.0128-33.792-14.6176C395.9296 847.3088 174.3872 692.9152 110.0288 576.512 28.7488 429.3376 48.4352 196.2496 235.5712 161.6384c184.2688-34.0736 279.0656 133.1968 279.0656 133.1968s103.7824-175.7184 279.9104-130.2016c184.2688 47.5648 199.3216 259.328 116.48 405.6064C845.696 685.5936 629.1456 847.4624 546.176 914.8416zM854.3744 364.16l-87.9872 0 0-87.9872c0-27.2896-22.1184-49.408-49.408-49.408s-49.3824 22.1184-49.3824 49.408l0 87.9872-88.0128 0c-27.264 0-49.408 22.0928-49.408 49.3824 0 27.3152 22.1184 49.408 49.408 49.408l88.0128 0 0 87.9872c0 27.264 22.0928 49.4336 49.3824 49.4336s49.408-22.144 49.408-49.4336l0-87.9872 87.9872 0c27.264 0 49.408-22.0672 49.408-49.408C903.7824 386.2528 881.6384 364.16 854.3744 364.16z" p-id="15324" fill="#AFAFAF"></path></svg>